<?xml version="1.0" ?><!DOCTYPE svg  PUBLIC '-//W3C//DTD SVG 1.1//EN'  'http://www.w3.org/Graphics/SVG/1.1/DTD/svg11.dtd'><svg enable-background="new 0 0 512 512" height="512px" id="Layer_1" version="1.1" viewBox="0 0 512 512" width="512px" xml:space="preserve" xmlns="http://www.w3.org/2000/svg" xmlns:xlink="http://www.w3.org/1999/xlink"><path d="M312.754,235.553c0,0,58.013-48.618,66.037-59.474c8.024-10.856,30.209,16.993,26.433,36.817  c-3.776,19.824-61.362,92.043-61.362,92.043L312.754,235.553z" fill="#FF9530"/><path d="M196.246,235.553c0,0-58.013-48.618-66.037-59.474c-8.024-10.856-30.209,16.993-26.433,36.817  c3.775,19.824,62.238,94.346,62.238,94.346L196.246,235.553z" fill="#FF9530"/><path d="M311.436,209.333c0,0,32.096,59.087,40.12,79.383c8.024,20.297,18.409,55.227,16.521,59.474  c-1.889,4.248-13.217,29.737-25.018,53.81c-11.801,24.073-35.4,59.003-35.4,59.003s-22.656,19.353-43.898,18.408  c-21.239-0.944-47.2-8.496-54.282-23.601c-7.079-15.104-20.768-52.866-46.257-76.467c0,0-14.16-29.737-12.272-33.041  c1.889-3.304,6.106-38.233,8.954-43.426c2.847-5.191,30.093-83.818,35.415-84.658C200.641,217.379,311.436,209.333,311.436,209.333z  " fill="#E85E03"/><path d="M354.444,182.432c-6.6,6.401-11.416,13.145-17.847,19.666c-1.489,1.543-3.01,3.068-4.576,4.577  c-1.568,1.507-3.185,3.001-4.865,4.472c-2.417,2.254-4.893,4.428-7.449,6.489c-7.671,6.183-16.077,11.351-25.842,14.633  c-2.692,1.085-5.512,1.976-8.481,2.632c-1.94,0.623-3.896,1.189-5.848,1.729c-1.95,0.541-3.895,1.056-5.811,1.578  c-3.078,0.861-6.235,1.524-9.462,1.971c-3.227,0.447-6.522,0.678-9.871,0.678l0,0c-9.844,0-19.223-1.995-27.751-5.603  c-2.843-1.202-5.593-2.584-8.233-4.131c-31.457-14.353-62.286-39.401-60.978-76.714c-0.364-3.034-0.562-6.113-0.591-9.224  c-0.091-9.335,1.322-18.967,4.25-28.598c0.476-3.091,1.021-6.149,1.628-9.179c0.607-3.028,1.277-6.027,1.993-8.984  c0.677-3.484,1.517-6.952,2.531-10.399c1.014-3.447,2.2-6.874,3.573-10.274c0.959-3.279,2.067-6.523,3.395-9.742  c0.948-3.107,2.061-6.17,3.326-9.18c5.061-12.041,12.562-23.24,21.726-32.912c2.291-2.621,4.66-5.099,7.195-7.397  C219.116,7.014,235.935,0,254.393,0l0,0c2.768,0,5.504,0.152,8.221,0.397c16.12,1.728,32.371,6.446,45.638,14.981  c2.652,1.707,5.186,3.566,7.575,5.582c23.614,18.42,31.438,46.795,39.028,73.593c0.843,2.978,1.683,5.936,2.542,8.859  c5.863,24.724,9.718,51.7-0.964,75.583C355.222,181.215,354.444,182.432,354.444,182.432z" fill="#FF9530"/><path d="M318.069,56.956c0,0-16.993,3.777-13.689,28.793c3.304,25.017,8.969,54.282,20.297,54.754  c11.329,0.472,24.546-5.979,21.24-22.814c-3.304-16.835-6.135-28.164-9.754-36.66C332.543,72.532,327.194,55.54,318.069,56.956z" fill="#449E9C"/><path d="M335.258,91.688c2.045,0,4.603,4.838,4.603,4.838l0.632-2.76c-1.364-4.909-2.773-9.087-4.329-12.738  c-3.62-8.497-8.969-25.489-18.094-24.073c0,0-16.993,3.777-13.689,28.793c2.022,15.308,4.932,32.195,9.477,43.114  c1.455-5.858,4.454-12.092,4.847-10.393c0.473,2.045,4.884,7.863,12.436,9.593c7.553,1.731,6.459-4.573,7.876-8.821  C340.431,114.994,333.212,91.688,335.258,91.688z" fill="#110D0E"/><ellipse cx="313.685" cy="87.042" fill="#BFBECE" rx="5.979" ry="17.997" transform="matrix(0.9357 -0.3529 0.3529 0.9357 -10.5354 116.2948)"/><path d="M293.104,74.228c-0.165,0.985-1.098,1.65-2.082,1.485l-0.157-0.026c-0.985-0.165-1.649-1.098-1.485-2.083  l2.676-15.984c0.165-0.985,1.098-1.65,2.082-1.485l0.157,0.025c0.985,0.165,1.649,1.098,1.485,2.083L293.104,74.228z" fill="#130E0A"/><path d="M282.973,201.497c-0.468,0.627-1.354,0.757-1.981,0.291l0,0c-0.627-0.467-0.758-1.354-0.291-1.981  l7.326-9.845c0.468-0.628,1.354-0.757,1.983-0.291l0,0c0.626,0.466,0.756,1.354,0.289,1.981L282.973,201.497z" fill="#130E0A"/><path d="M203.054,56.956c0,0,16.993,3.777,13.688,28.793c-3.304,25.017-8.969,54.282-20.297,54.754  c-11.329,0.472-24.544-5.979-21.24-22.814s6.135-28.164,9.755-36.66C188.579,72.532,193.928,55.54,203.054,56.956z" fill="#449E9C"/><path d="M185.864,91.688c-2.045,0-4.601,4.838-4.601,4.838l-0.632-2.76c1.363-4.909,2.772-9.087,4.328-12.738  c3.619-8.497,8.968-25.489,18.094-24.073c0,0,16.993,3.777,13.688,28.793c-2.021,15.308-4.93,32.195-9.476,43.114  c-1.455-5.858-4.454-12.092-4.847-10.393c-0.472,2.045-4.884,7.863-12.436,9.593c-7.552,1.731-6.46-4.573-7.877-8.821  C180.692,114.994,187.91,91.688,185.864,91.688z" fill="#110D0E"/><path d="M201.843,84.932c-3.507,9.3-3.845,17.784-0.757,18.949c3.093,1.164,8.439-5.43,11.945-14.729  c3.507-9.3,3.844-17.784,0.755-18.949C210.696,69.039,205.349,75.633,201.843,84.932z" fill="#BFBECE"/><path d="M228.019,74.228c0.165,0.985,1.097,1.65,2.081,1.485l0.158-0.026c0.984-0.165,1.649-1.098,1.484-2.083  l-2.675-15.984c-0.165-0.985-1.097-1.65-2.083-1.485l-0.156,0.025c-0.986,0.165-1.65,1.098-1.484,2.083L228.019,74.228z" fill="#130E0A"/><path d="M238.15,201.497c0.468,0.627,1.354,0.757,1.981,0.291l0,0c0.626-0.467,0.757-1.354,0.291-1.981l-7.327-9.845  c-0.467-0.628-1.354-0.757-1.982-0.291l0,0c-0.626,0.466-0.757,1.354-0.289,1.981L238.15,201.497z" fill="#130E0A"/><g><path d="M260.562,224.369c-0.772-0.027-1.521-0.083-2.253-0.171c-22.373-2.679-51.981-13.481-62.524-20.986   c-0.637-0.454-0.786-1.338-0.332-1.975c0.454-0.637,1.337-0.786,1.977-0.333c10.059,7.162,39.609,17.895,61.217,20.481   c21.354,2.549,63.323-23.789,63.744-24.055c0.661-0.417,1.535-0.221,1.953,0.44c0.42,0.661,0.222,1.535-0.439,1.954   C322.205,200.798,283.34,225.198,260.562,224.369z"/></g><path d="M347.646,368.251c0,62.954-49.34,113.991-89.782,113.991c-42.611,0-89.783-51.037-89.783-113.991  c0-62.956,40.196-113.993,89.783-113.993C307.448,254.258,347.646,305.295,347.646,368.251z" fill="#F7EFD0"/><path d="M152.864,338.725c0,0-38.706,42.034-27.377,73.188c11.328,31.152,22.049,55.32,22.049,55.32  s1.357,0.408,3.63,1.003c2.274,0.596,17.744-8.067,21.435-7.33c13.304,1.984,54.28,38.81,38.793-10.289  c-7.389-23.425-24.545-40.593-37.744-60.41c-1.116-2.05-2.167-4.097-3.173-6.146c-5.022-10.244-8.941-20.571-12.786-31.4  c-1.063-2.87-1.95-5.377-2.664-7.443C153.599,341.088,152.864,338.725,152.864,338.725z" fill="#FF9530"/><path d="M227.24,488.024c-2.155,16.328-7.033,24.096-46.957,23.876c-29.139-0.161-41.301-18.923-39.145-35.25  c2.157-16.328,23.181-27.019,46.957-23.877C211.871,455.915,229.398,471.697,227.24,488.024z" fill="#ED7E35"/><ellipse cx="152.888" cy="488.591" fill="#DCDADD" rx="9.204" ry="10.386" transform="matrix(-0.9914 -0.131 0.131 -0.9914 240.4632 992.9985)"/><ellipse cx="181.044" cy="493.502" fill="#DCDADD" rx="14.632" ry="11.564" transform="matrix(-0.9914 -0.131 0.131 -0.9914 295.8918 1006.4662)"/><ellipse cx="213.739" cy="490.204" fill="#DCDADD" rx="12.628" ry="11.563" transform="matrix(-0.9914 -0.131 0.131 -0.9914 361.4404 1004.1768)"/><path d="M367.736,338.725c0,0,38.704,42.034,27.376,73.188c-11.328,31.152-22.049,55.32-22.049,55.32  s-1.358,0.408-3.632,1.003c-2.273,0.596-17.742-8.067-21.434-7.33c-13.304,1.984-54.278,38.81-38.792-10.289  c7.389-23.425,24.544-40.593,37.743-60.41c1.116-2.05,2.168-4.097,3.172-6.146c5.024-10.244,8.943-20.571,12.788-31.4  c1.063-2.87,1.95-5.377,2.663-7.443C367.001,341.088,367.736,338.725,367.736,338.725z" fill="#FF9530"/><path d="M292.12,488.024c2.155,16.328,7.033,24.096,46.957,23.876c29.14-0.161,41.303-18.923,39.146-35.25  c-2.156-16.328-23.182-27.019-46.958-23.877C307.489,455.915,289.963,471.697,292.12,488.024z" fill="#ED7E35"/><ellipse cx="366.473" cy="488.591" fill="#DCDADD" rx="9.204" ry="10.386" transform="matrix(0.9914 -0.131 0.131 0.9914 -60.838 52.2093)"/><ellipse cx="338.317" cy="493.502" fill="#DCDADD" rx="14.632" ry="11.564" transform="matrix(0.9914 -0.131 0.131 0.9914 -61.7229 48.5629)"/><ellipse cx="305.621" cy="490.204" fill="#DCDADD" rx="12.628" ry="11.563" transform="matrix(0.9914 -0.131 0.131 0.9914 -61.5652 44.2462)"/></svg>