<?xml version="1.0" ?><svg id="Layer_1" style="enable-background:new 0 0 100 100;" version="1.1" viewBox="0 0 100 100" xml:space="preserve" xmlns="http://www.w3.org/2000/svg" xmlns:xlink="http://www.w3.org/1999/xlink"><style type="text/css">
	.st0{fill:none;stroke:#000000;stroke-width:2;stroke-miterlimit:10;}
	.st1{fill:none;stroke:#000000;stroke-linejoin:round;stroke-miterlimit:10;}
	.st2{fill:none;stroke:#000000;stroke-miterlimit:10;}
</style><g><path d="M71,5H29c-2.2,0-4,1.8-4,4v82c0,2.2,1.8,4,4,4h42c2.2,0,4-1.8,4-4V9C75,6.8,73.2,5,71,5z M43.5,9h13c0.6,0,1,0.4,1,1v0   c0,0.6-0.4,1-1,1h-13c-0.6,0-1-0.4-1-1v0C42.5,9.4,42.9,9,43.5,9z M50,93c-1.7,0-3-1.3-3-3s1.3-3,3-3s3,1.3,3,3S51.7,93,50,93z    M72.5,85h-45V15h45V85z"/><g><path d="M50,49.1c-1.5,0-2.7-1-3-2.3c-5.4,0.1-10.2,0.4-11,1c0.4,2.9,1.6,5.6,3.5,7.7c2.1,2.3,4.1,4.8,6.1,7.2l4.4,5.5l4.4-5.5    c2-2.5,4-4.9,6.1-7.2c1.9-2.1,3.1-4.7,3.5-7.6c-0.8-0.6-5.6-0.9-11-1C52.7,48.1,51.5,49.1,50,49.1z M54,48.4    c4.3,0.1,6.9,0.3,8.2,0.5c-1.3,5.6-6.3,9.6-12.2,9.6c-5.9,0-10.9-4.1-12.2-9.6c1.3-0.2,3.8-0.4,8.2-0.5c0.8,1.4,2.4,2.3,4,2.3    C51.7,50.7,53.2,49.8,54,48.4z"/><circle cx="50" cy="46" r="2.2"/><path d="M50,31.8c-7.8,0-14.1,6.3-14.1,14.1c0,0.1,0,0.2,0,0.3c0.1-0.2,0.6-0.4,1.6-0.5c0.1-6.6,5.2-12.2,11.7-12.6    c0.5,0,0.8,0.3,0.8,0.8c0,0.4-0.3,0.8-0.7,0.8c-5.7,0.4-10.2,5.1-10.2,10.9c2-0.2,4.9-0.3,7.9-0.4c0.3-1.4,1.6-2.4,3-2.4    c1.5,0,2.7,1,3,2.4c5.8,0.1,10.9,0.5,11.1,1.1c0-0.1,0-0.2,0-0.3C64.1,38.2,57.8,31.8,50,31.8z"/></g></g></svg>